<svg width="352" height="162" viewBox="0 0 352 162" fill="none" xmlns="http://www.w3.org/2000/svg">
<g filter="url(#filter0_d_2_262)">
<rect x="38" y="24" width="276" height="86" rx="12" fill="white"/>
</g>
<path d="M110.719 56.5653H111.989C111.95 55.1676 110.714 54.1534 108.942 54.1534C107.19 54.1534 105.848 55.1548 105.848 56.6591C105.848 57.8736 106.717 58.5852 108.119 58.9645L109.151 59.2457C110.084 59.4929 110.804 59.7997 110.804 60.5753C110.804 61.4276 109.99 61.9901 108.869 61.9901C107.855 61.9901 107.011 61.5384 106.935 60.5881H105.614C105.699 62.169 106.922 63.1449 108.878 63.1449C110.928 63.1449 112.108 62.0668 112.108 60.5881C112.108 59.0156 110.706 58.4062 109.598 58.1335L108.746 57.9119C108.064 57.7372 107.156 57.4176 107.161 56.5824C107.161 55.8409 107.838 55.2912 108.912 55.2912C109.913 55.2912 110.625 55.7599 110.719 56.5653ZM116.4 63.1321C117.828 63.1321 118.838 62.429 119.127 61.3636L117.922 61.1463C117.691 61.7642 117.137 62.0795 116.413 62.0795C115.322 62.0795 114.589 61.3722 114.555 60.1108H119.208V59.6591C119.208 57.294 117.794 56.3693 116.311 56.3693C114.487 56.3693 113.285 57.7585 113.285 59.7699C113.285 61.8026 114.47 63.1321 116.4 63.1321ZM114.559 59.1562C114.61 58.2273 115.284 57.4219 116.319 57.4219C117.308 57.4219 117.956 58.1548 117.96 59.1562H114.559ZM121.896 59.1136C121.896 58.0696 122.536 57.473 123.422 57.473C124.287 57.473 124.811 58.0398 124.811 58.9901V63H126.085V58.8366C126.085 57.2173 125.195 56.3693 123.857 56.3693C122.872 56.3693 122.229 56.8253 121.926 57.5199H121.845V56.4545H120.622V63H121.896V59.1136ZM130.244 63.1278C131.438 63.1278 131.906 62.3991 132.136 61.9815H132.243V63H133.487V54.2727H132.213V57.5156H132.136C131.906 57.1108 131.472 56.3693 130.253 56.3693C128.672 56.3693 127.509 57.6179 127.509 59.7401C127.509 61.858 128.655 63.1278 130.244 63.1278ZM130.526 62.0412C129.388 62.0412 128.795 61.0398 128.795 59.7273C128.795 58.4276 129.375 57.4517 130.526 57.4517C131.638 57.4517 132.234 58.3594 132.234 59.7273C132.234 61.1037 131.625 62.0412 130.526 62.0412ZM138.584 54.2727V63H139.837V56.6804H139.918L142.491 62.9872H143.531L146.105 56.6847H146.186V63H147.439V54.2727H145.841L143.062 61.0568H142.96L140.182 54.2727H138.584ZM152.008 63.1321C153.853 63.1321 155.059 61.7812 155.059 59.7571C155.059 57.7202 153.853 56.3693 152.008 56.3693C150.163 56.3693 148.957 57.7202 148.957 59.7571C148.957 61.7812 150.163 63.1321 152.008 63.1321ZM152.012 62.0625C150.806 62.0625 150.244 61.0099 150.244 59.7528C150.244 58.5 150.806 57.4347 152.012 57.4347C153.21 57.4347 153.772 58.5 153.772 59.7528C153.772 61.0099 153.21 62.0625 152.012 62.0625ZM157.756 59.1136C157.756 58.0696 158.395 57.473 159.281 57.473C160.146 57.473 160.67 58.0398 160.67 58.9901V63H161.945V58.8366C161.945 57.2173 161.054 56.3693 159.716 56.3693C158.732 56.3693 158.088 56.8253 157.786 57.5199H157.705V56.4545H156.482V63H157.756V59.1136ZM166.474 63.1321C167.902 63.1321 168.912 62.429 169.202 61.3636L167.996 61.1463C167.766 61.7642 167.212 62.0795 166.487 62.0795C165.396 62.0795 164.663 61.3722 164.629 60.1108H169.283V59.6591C169.283 57.294 167.868 56.3693 166.385 56.3693C164.561 56.3693 163.359 57.7585 163.359 59.7699C163.359 61.8026 164.544 63.1321 166.474 63.1321ZM164.634 59.1562C164.685 58.2273 165.358 57.4219 166.393 57.4219C167.382 57.4219 168.03 58.1548 168.034 59.1562H164.634ZM171.303 65.4545C172.355 65.4545 173.02 64.9048 173.399 63.8736L176.105 56.4673L174.729 56.4545L173.071 61.5341H173.003L171.345 56.4545H169.982L172.376 63.0852L172.219 63.5199C171.895 64.3892 171.439 64.4616 170.74 64.2699L170.433 65.3139C170.587 65.3821 170.919 65.4545 171.303 65.4545Z" fill="#212832"/>
<path d="M106.179 80L106.911 77.9403H109.851L110.582 80H111.506L108.835 72.7273H107.926L105.256 80H106.179ZM107.188 77.1591L108.352 73.8778H108.409L109.574 77.1591H107.188ZM112.583 80H113.422V74.5455H112.583V80ZM113.01 73.6364C113.336 73.6364 113.606 73.3807 113.606 73.0682C113.606 72.7557 113.336 72.5 113.01 72.5C112.683 72.5 112.413 72.7557 112.413 73.0682C112.413 73.3807 112.683 73.6364 113.01 73.6364ZM114.956 80H115.795V76.5483C115.795 75.8097 116.377 75.2699 117.172 75.2699C117.396 75.2699 117.627 75.3125 117.684 75.3267V74.4744C117.588 74.4673 117.368 74.4602 117.243 74.4602C116.59 74.4602 116.022 74.8295 115.823 75.3693H115.766V74.5455H114.956V80ZM118.791 80H119.6V79.1619H119.7C119.885 79.4602 120.24 80.1136 121.291 80.1136C122.654 80.1136 123.606 79.0199 123.606 77.2869C123.606 75.5682 122.654 74.4744 121.277 74.4744C120.211 74.4744 119.885 75.1278 119.7 75.4119H119.629V72.7273H118.791V80ZM119.615 77.2727C119.615 76.0511 120.154 75.2273 121.177 75.2273C122.243 75.2273 122.768 76.1222 122.768 77.2727C122.768 78.4375 122.228 79.3608 121.177 79.3608C120.169 79.3608 119.615 78.5085 119.615 77.2727ZM125.726 76.7188C125.726 75.767 126.316 75.2273 127.118 75.2273C127.896 75.2273 128.368 75.7351 128.368 76.5909V80H129.206V76.5341C129.206 75.142 128.464 74.4744 127.36 74.4744C126.536 74.4744 126.025 74.8438 125.769 75.3977H125.698V74.5455H124.888V80H125.726V76.7188ZM130.851 80H131.661V79.1619H131.76C131.945 79.4602 132.3 80.1136 133.351 80.1136C134.715 80.1136 135.667 79.0199 135.667 77.2869C135.667 75.5682 134.715 74.4744 133.337 74.4744C132.272 74.4744 131.945 75.1278 131.76 75.4119H131.689V72.7273H130.851V80ZM131.675 77.2727C131.675 76.0511 132.215 75.2273 133.238 75.2273C134.303 75.2273 134.829 76.1222 134.829 77.2727C134.829 78.4375 134.289 79.3608 133.238 79.3608C132.229 79.3608 131.675 78.5085 131.675 77.2727ZM139.875 80H140.756V77.3438H142.346C144.04 77.3438 144.804 76.3139 144.804 75.0284C144.804 73.7429 144.04 72.7273 142.332 72.7273H139.875V80ZM140.756 76.5625V73.5085H142.304C143.486 73.5085 143.937 74.1548 143.937 75.0284C143.937 75.902 143.486 76.5625 142.318 76.5625H140.756ZM147.714 80.1278C148.666 80.1278 149.163 79.6165 149.333 79.2614H149.376V80H150.214V76.4062C150.214 74.6733 148.893 74.4744 148.197 74.4744C147.373 74.4744 146.436 74.7585 146.009 75.7528L146.805 76.0369C146.99 75.6392 147.426 75.2131 148.225 75.2131C148.996 75.2131 149.376 75.6214 149.376 76.321V76.3494C149.376 76.7543 148.964 76.7188 147.97 76.8466C146.958 76.978 145.853 77.2017 145.853 78.4517C145.853 79.517 146.677 80.1278 147.714 80.1278ZM147.842 79.375C147.174 79.375 146.691 79.0767 146.691 78.4943C146.691 77.8551 147.274 77.6562 147.927 77.571C148.282 77.5284 149.234 77.429 149.376 77.2585V78.0256C149.376 78.7074 148.836 79.375 147.842 79.375ZM152.088 82.0455C152.844 82.0455 153.377 81.6442 153.693 80.7955L156.016 74.5597L155.099 74.5455L153.594 78.892H153.537L152.031 74.5455H151.122L153.139 80.0284L152.983 80.4545C152.678 81.2855 152.301 81.3636 151.69 81.2074L151.477 81.946C151.562 81.9886 151.804 82.0455 152.088 82.0455ZM157.124 80H157.963V76.5909C157.963 75.7919 158.545 75.2273 159.198 75.2273C159.834 75.2273 160.278 75.6428 160.278 76.2642V80H161.13V76.4489C161.13 75.7457 161.57 75.2273 162.338 75.2273C162.934 75.2273 163.445 75.5433 163.445 76.3494V80H164.284V76.3494C164.284 75.0675 163.595 74.4744 162.622 74.4744C161.84 74.4744 161.269 74.8331 160.988 75.3977H160.931C160.661 74.8153 160.186 74.4744 159.468 74.4744C158.758 74.4744 158.232 74.8153 158.005 75.3977H157.934V74.5455H157.124V80ZM168.103 80.1136C169.211 80.1136 170.02 79.5597 170.276 78.7358L169.466 78.5085C169.253 79.0767 168.76 79.3608 168.103 79.3608C167.119 79.3608 166.441 78.7251 166.402 77.5568H170.361V77.2017C170.361 75.1705 169.154 74.4744 168.018 74.4744C166.54 74.4744 165.56 75.6392 165.56 77.3153C165.56 78.9915 166.526 80.1136 168.103 80.1136ZM166.402 76.8324C166.459 75.9837 167.059 75.2273 168.018 75.2273C168.927 75.2273 169.509 75.9091 169.509 76.8324H166.402ZM172.474 76.7188C172.474 75.767 173.064 75.2273 173.866 75.2273C174.644 75.2273 175.116 75.7351 175.116 76.5909V80H175.954V76.5341C175.954 75.142 175.212 74.4744 174.108 74.4744C173.284 74.4744 172.773 74.8438 172.517 75.3977H172.446V74.5455H171.636V80H172.474V76.7188ZM179.858 74.5455H178.693V73.2386H177.855V74.5455H177.031V75.2557H177.855V78.6648C177.855 79.6165 178.622 80.071 179.332 80.071C179.645 80.071 179.844 80.0142 179.957 79.9716L179.787 79.2188C179.716 79.233 179.602 79.2614 179.418 79.2614C179.048 79.2614 178.693 79.1477 178.693 78.4375V75.2557H179.858V74.5455Z" fill="#696D76"/>
<path d="M255.18 58.5568H250.089V59.8068H255.18V58.5568ZM265.449 66.4545H266.381V65.1875C268.767 65.0227 270.108 63.6136 270.108 61.8409C270.108 59.6591 268.04 58.9545 266.835 58.6364L266.381 58.5114V54.4716C267.585 54.5909 268.46 55.2386 268.585 56.2727H269.949C269.892 54.6136 268.438 53.3523 266.381 53.2159V51.9091H265.449V53.233C263.5 53.4318 262.04 54.6705 262.04 56.4545C262.04 58.0227 263.176 58.9545 264.994 59.4773L265.449 59.608V63.9091C264.256 63.7841 263.278 63.1705 263.176 62H261.722C261.852 63.7898 263.216 65.0398 265.449 65.1875V66.4545ZM266.381 63.9091V59.875L266.426 59.8864C267.653 60.2273 268.744 60.6591 268.744 61.8182C268.744 62.9602 267.756 63.7557 266.381 63.9091ZM265.449 58.2614C264.585 58.017 263.403 57.5398 263.403 56.3864C263.403 55.4034 264.199 54.6534 265.449 54.4886V58.2614ZM276.084 65.1591C278.436 65.1875 279.97 63.4148 279.97 61.25C279.97 59 278.305 57.3864 276.311 57.3864C275.112 57.3864 274.084 57.9716 273.447 58.9318H273.357C273.362 56.0966 274.464 54.4545 276.266 54.4545C277.493 54.4545 278.232 55.2273 278.493 56.2727H279.879C279.595 54.4659 278.22 53.2045 276.266 53.2045C273.646 53.2045 272.038 55.5227 272.038 59.6364C272.038 63.9375 274.175 65.1364 276.084 65.1591ZM276.084 63.9091C274.624 63.9091 273.555 62.6648 273.561 61.2727C273.567 59.8807 274.686 58.6364 276.129 58.6364C277.555 58.6364 278.607 59.8068 278.607 61.25C278.607 62.7273 277.51 63.9091 276.084 63.9091ZM286 65.1591C288.568 65.1591 290.045 62.983 290.045 59.1818C290.045 55.4091 288.545 53.2045 286 53.2045C283.455 53.2045 281.955 55.4091 281.955 59.1818C281.955 62.983 283.432 65.1591 286 65.1591ZM286 63.9091C284.307 63.9091 283.318 62.2102 283.318 59.1818C283.318 56.1591 284.318 54.4318 286 54.4318C287.682 54.4318 288.682 56.1591 288.682 59.1818C288.682 62.2102 287.693 63.9091 286 63.9091ZM296 65.1591C298.568 65.1591 300.045 62.983 300.045 59.1818C300.045 55.4091 298.545 53.2045 296 53.2045C293.455 53.2045 291.955 55.4091 291.955 59.1818C291.955 62.983 293.432 65.1591 296 65.1591ZM296 63.9091C294.307 63.9091 293.318 62.2102 293.318 59.1818C293.318 56.1591 294.318 54.4318 296 54.4318C297.682 54.4318 298.682 56.1591 298.682 59.1818C298.682 62.2102 297.693 63.9091 296 63.9091Z" fill="#212832"/>
<path d="M272.333 76.5455H273.185C273.146 75.4482 272.134 74.6278 270.727 74.6278C269.335 74.6278 268.242 75.4375 268.242 76.6591C268.242 77.6392 268.952 78.2216 270.088 78.5483L270.983 78.804C271.75 79.017 272.432 79.2869 272.432 80.0114C272.432 80.8068 271.665 81.3324 270.656 81.3324C269.79 81.3324 269.023 80.9489 268.952 80.125H268.043C268.128 81.3182 269.094 82.1278 270.656 82.1278C272.333 82.1278 273.284 81.2045 273.284 80.0256C273.284 78.6619 271.992 78.2216 271.239 78.0227L270.5 77.8239C269.96 77.6818 269.094 77.3977 269.094 76.6165C269.094 75.9205 269.733 75.4091 270.699 75.4091C271.58 75.4091 272.247 75.8281 272.333 76.5455ZM276.906 82.1136C278.013 82.1136 278.823 81.5597 279.079 80.7358L278.269 80.5085C278.056 81.0767 277.562 81.3608 276.906 81.3608C275.922 81.3608 275.244 80.7251 275.205 79.5568H279.164V79.2017C279.164 77.1705 277.957 76.4744 276.82 76.4744C275.343 76.4744 274.363 77.6392 274.363 79.3153C274.363 80.9915 275.329 82.1136 276.906 82.1136ZM275.205 78.8324C275.261 77.9837 275.862 77.2273 276.82 77.2273C277.729 77.2273 278.312 77.9091 278.312 78.8324H275.205ZM280.439 84.0455H281.277V81.1619H281.348C281.533 81.4602 281.888 82.1136 282.939 82.1136C284.303 82.1136 285.254 81.0199 285.254 79.2869C285.254 77.5682 284.303 76.4744 282.925 76.4744C281.859 76.4744 281.533 77.1278 281.348 77.4119H281.249V76.5455H280.439V84.0455ZM281.263 79.2727C281.263 78.0511 281.803 77.2273 282.825 77.2273C283.891 77.2273 284.416 78.1222 284.416 79.2727C284.416 80.4375 283.876 81.3608 282.825 81.3608C281.817 81.3608 281.263 80.5085 281.263 79.2727ZM289.331 82H293.919V81.2188H290.538V81.1619L292.172 79.4148C293.422 78.076 293.791 77.451 293.791 76.6449C293.791 75.5227 292.882 74.6278 291.604 74.6278C290.329 74.6278 289.359 75.4943 289.359 76.7727H290.197C290.197 75.9453 290.734 75.3949 291.575 75.3949C292.364 75.3949 292.967 75.8778 292.967 76.6449C292.967 77.3161 292.573 77.8132 291.732 78.733L289.331 81.3608V82ZM297.843 82.0994C299.253 82.0994 300.3 81.2152 300.3 80.0256C300.3 79.1023 299.754 78.4311 298.837 78.2784V78.2216C299.572 77.9979 300.031 77.3942 300.031 76.5739C300.031 75.544 299.217 74.6278 297.871 74.6278C296.614 74.6278 295.57 75.402 295.528 76.5455H296.38C296.412 75.821 297.101 75.3949 297.857 75.3949C298.66 75.3949 299.178 75.8814 299.178 76.6165C299.178 77.3835 298.578 77.8807 297.715 77.8807H297.133V78.6619H297.715C298.82 78.6619 299.434 79.223 299.434 80.0256C299.434 80.7962 298.763 81.3182 297.829 81.3182C296.987 81.3182 296.32 80.8849 296.266 80.1818H295.371C295.425 81.3253 296.433 82.0994 297.843 82.0994Z" fill="#696D76"/>
<g opacity="0.1" filter="url(#filter1_dd_2_262)">
<rect x="51" y="47" width="40" height="40" rx="8" fill="#DA6464"/>
</g>
<path d="M68.2914 71.6757V75.5404C68.2914 75.8104 68.4647 76.0495 68.7214 76.1345C68.7855 76.1553 68.8513 76.1653 68.9163 76.1653C69.1113 76.1653 69.2996 76.0737 69.4196 75.9104L71.6803 72.8339L68.2914 71.6757Z" fill="#DA6464"/>
<path d="M80.7361 57.1159C80.5445 56.9801 80.2928 56.9617 80.0845 57.0709L61.3358 66.8619C61.1142 66.9777 60.9834 67.2143 61.0017 67.4635C61.0209 67.7135 61.1867 67.9268 61.4225 68.0076L66.6346 69.7892L77.7347 60.2982L69.1453 70.6466L77.8805 73.6322C77.9455 73.6539 78.0138 73.6655 78.0821 73.6655C78.1955 73.6655 78.308 73.6347 78.4071 73.5747C78.5654 73.4781 78.6729 73.3156 78.7004 73.1331L80.9919 57.7175C81.0261 57.4842 80.9278 57.2526 80.7361 57.1159Z" fill="#DA6464"/>
<defs>
<filter id="filter0_d_2_262" x="0" y="0" width="352" height="162" filterUnits="userSpaceOnUse" color-interpolation-filters="sRGB">
<feFlood flood-opacity="0" result="BackgroundImageFix"/>
<feColorMatrix in="SourceAlpha" type="matrix" values="0 0 0 0 0 0 0 0 0 0 0 0 0 0 0 0 0 0 127 0" result="hardAlpha"/>
<feOffset dy="14"/>
<feGaussianBlur stdDeviation="19"/>
<feComposite in2="hardAlpha" operator="out"/>
<feColorMatrix type="matrix" values="0 0 0 0 0 0 0 0 0 0 0 0 0 0 0 0 0 0 0.07 0"/>
<feBlend mode="normal" in2="BackgroundImageFix" result="effect1_dropShadow_2_262"/>
<feBlend mode="normal" in="SourceGraphic" in2="effect1_dropShadow_2_262" result="shape"/>
</filter>
<filter id="filter1_dd_2_262" x="31" y="29" width="80" height="76" filterUnits="userSpaceOnUse" color-interpolation-filters="sRGB">
<feFlood flood-opacity="0" result="BackgroundImageFix"/>
<feColorMatrix in="SourceAlpha" type="matrix" values="0 0 0 0 0 0 0 0 0 0 0 0 0 0 0 0 0 0 127 0" result="hardAlpha"/>
<feOffset dx="4" dy="2"/>
<feGaussianBlur stdDeviation="8"/>
<feColorMatrix type="matrix" values="0 0 0 0 0.534167 0 0 0 0 0.645967 0 0 0 0 0.749167 0 0 0 0.48 0"/>
<feBlend mode="normal" in2="BackgroundImageFix" result="effect1_dropShadow_2_262"/>
<feColorMatrix in="SourceAlpha" type="matrix" values="0 0 0 0 0 0 0 0 0 0 0 0 0 0 0 0 0 0 127 0" result="hardAlpha"/>
<feOffset dx="-4" dy="-2"/>
<feGaussianBlur stdDeviation="8"/>
<feColorMatrix type="matrix" values="0 0 0 0 1 0 0 0 0 1 0 0 0 0 1 0 0 0 1 0"/>
<feBlend mode="normal" in2="effect1_dropShadow_2_262" result="effect2_dropShadow_2_262"/>
<feBlend mode="normal" in="SourceGraphic" in2="effect2_dropShadow_2_262" result="shape"/>
</filter>
</defs>
</svg>
